<svg width="85" height="85" viewBox="0 0 85 85" fill="none" xmlns="http://www.w3.org/2000/svg">
<g opacity="0.6" filter="url(#filter0_i_audit)">
<path d="M0 14.521C0 6.50129 6.50128 0 14.521 0H70.1849C78.2046 0 84.7059 6.50128 84.7059 14.521V70.1849C84.7059 78.2046 78.2046 84.7059 70.1849 84.7059H14.521C6.50129 84.7059 0 78.2046 0 70.1849V14.521Z" fill="#F7F6FA"/>
<path d="M14.5215 0.302734H70.1846C78.0372 0.302734 84.4033 6.66883 84.4033 14.5215V70.1846C84.4033 78.0372 78.0372 84.4033 70.1846 84.4033H14.5215C6.66883 84.4033 0.302734 78.0372 0.302734 70.1846V14.5215C0.302734 6.66883 6.66883 0.302734 14.5215 0.302734Z" stroke="#C9B6D6" stroke-width="0.605042"/>
<rect x="24" y="19" width="37" height="46" rx="4" stroke="#6E3894" stroke-width="1.5"/>
<path d="M31 31h23M31 39h23M31 47h16" stroke="#6E3894" stroke-width="1.5" stroke-linecap="round"/>
<path d="M54 52l-8 8-4-4" stroke="#6E3894" stroke-width="1.5" stroke-linecap="round" stroke-linejoin="round"/>
</g>
<defs>
<filter id="filter0_i_audit" x="0" y="0" width="84.7051" height="84.7061" filterUnits="userSpaceOnUse" color-interpolation-filters="sRGB">
<feFlood flood-opacity="0" result="BackgroundImageFix"/>
<feBlend mode="normal" in="SourceGraphic" in2="BackgroundImageFix" result="shape"/>
<feColorMatrix in="SourceAlpha" type="matrix" values="0 0 0 0 0 0 0 0 0 0 0 0 0 0 0 0 0 0 127 0" result="hardAlpha"/>
<feOffset/><feGaussianBlur stdDeviation="3.06"/>
<feComposite in2="hardAlpha" operator="arithmetic" k2="-1" k3="1"/>
<feColorMatrix type="matrix" values="0 0 0 0 0 0 0 0 0 0 0 0 0 0 0 0 0 0 0.3 0"/>
<feBlend mode="normal" in2="shape" result="effect1_innerShadow"/>
</filter>
</defs>
</svg>
